<?xml version="1.0" encoding="UTF-8" standalone="no"?>
<!-- Created with Inkscape (http://www.inkscape.org/) -->

<svg
   xmlns:dc="http://purl.org/dc/elements/1.1/"
   xmlns:cc="http://creativecommons.org/ns#"
   xmlns:rdf="http://www.w3.org/1999/02/22-rdf-syntax-ns#"
   xmlns:svg="http://www.w3.org/2000/svg"
   xmlns="http://www.w3.org/2000/svg"
   xmlns:sodipodi="http://sodipodi.sourceforge.net/DTD/sodipodi-0.dtd"
   xmlns:inkscape="http://www.inkscape.org/namespaces/inkscape"
   width="68.051659mm"
   height="5.6430702mm"
   viewBox="0 0 68.051659 5.6430702"
   version="1.1"
   id="svg4618"
   inkscape:version="0.92.5 (2060ec1f9f, 2020-04-08)"
   sodipodi:docname="drawing.svg">
  <defs
     id="defs4612" />
  <sodipodi:namedview
     id="base"
     pagecolor="#ffffff"
     bordercolor="#666666"
     borderopacity="1.0"
     inkscape:pageopacity="0.0"
     inkscape:pageshadow="2"
     inkscape:zoom="3.6298148"
     inkscape:cx="444.28517"
     inkscape:cy="-38.796623"
     inkscape:document-units="mm"
     inkscape:current-layer="layer1"
     showgrid="false"
     fit-margin-top="0"
     fit-margin-left="0"
     fit-margin-right="0"
     fit-margin-bottom="0"
     inkscape:window-width="3768"
     inkscape:window-height="2096"
     inkscape:window-x="72"
     inkscape:window-y="27"
     inkscape:window-maximized="1" />
  <metadata
     id="metadata4615">
    <rdf:RDF>
      <cc:Work
         rdf:about="">
        <dc:format>image/svg+xml</dc:format>
        <dc:type
           rdf:resource="http://purl.org/dc/dcmitype/StillImage" />
        <dc:title></dc:title>
      </cc:Work>
    </rdf:RDF>
  </metadata>
  <g
     inkscape:label="Layer 1"
     inkscape:groupmode="layer"
     id="layer1"
     transform="translate(-32.060059,-97.49944)">
    <g
       aria-label="OpenBenchmarking.org"
       style="font-style:normal;font-variant:normal;font-weight:normal;font-stretch:normal;font-size:6.3499999px;line-height:1.25;font-family:Sansation;-inkscape-font-specification:Sansation;letter-spacing:0px;word-spacing:0px;fill:#000000;fill-opacity:1;stroke:none;stroke-width:0.26458332"
       id="text4622">
      <path
         d="m 32.91272,99.734966 q 0,1.547194 1.373559,1.547194 1.339453,0 1.339453,-1.547194 0,-1.522388 -1.339453,-1.522388 -1.373559,0 -1.373559,1.522388 z m -0.852661,0.0186 q 0,-2.254126 2.22622,-2.254126 2.192114,0 2.192114,2.254126 0,2.241724 -2.192114,2.241724 -2.127002,0 -2.22622,-2.241724 z"
         style="fill:#898989;fill-opacity:1"
         id="path5185"
         inkscape:connector-curvature="0" />
      <path
         d="m 37.997681,101.11473 q 0.306958,0.16743 0.660424,0.16743 0.734839,0 0.734839,-1.0325 0,-0.877463 -0.812353,-0.877463 -0.350366,0 -0.58291,0.04341 z m -0.821656,-2.272733 q 0.648023,-0.133325 1.370459,-0.133325 1.658814,0 1.658814,1.547188 0,1.70843 -1.544092,1.70843 -0.328662,0 -0.663525,-0.15503 v 1.33325 h -0.821656 z"
         style="fill:#898989;fill-opacity:1"
         id="path5187"
         inkscape:connector-curvature="0" />
      <path
         d="m 42.198974,98.708672 q 1.48208,0 1.48208,1.513088 0,0.20154 -0.02791,0.40307 h -2.161108 q 0,0.68833 1.010791,0.68833 0.492993,0 0.985986,-0.093 v 0.65112 q -0.430982,0.093 -1.047998,0.093 -1.770435,0 -1.770435,-1.66502 0,-1.590598 1.528589,-1.590598 z m -0.706933,1.345658 h 1.389062 v -0.0248 q 0,-0.675927 -0.682129,-0.675927 -0.651123,0 -0.706933,0.700737 z"
         style="fill:#898989;fill-opacity:1"
         id="path5189"
         inkscape:connector-curvature="0" />
      <path
         d="m 44.298071,101.96429 v -3.255618 h 0.63562 l 0.102319,0.47749 q 0.468189,-0.47749 1.066602,-0.47749 1.156518,0 1.156518,1.203027 v 2.052591 h -0.821655 v -2.052591 q 0,-0.539502 -0.536401,-0.539502 -0.399976,0 -0.781348,0.31936 v 2.272733 z"
         style="fill:#898989;fill-opacity:1"
         id="path5191"
         inkscape:connector-curvature="0" />
      <path
         d="m 48.111792,101.96429 v -4.433841 h 2.077392 q 1.265039,0 1.265039,1.032495 0,0.756543 -0.824756,1.082105 0.880567,0.164331 0.880567,1.007691 0,1.31155 -1.385962,1.31155 z m 1.978173,-0.71314 q 0.545704,0 0.545704,-0.5581 0,-0.69143 -0.815455,-0.69143 h -0.248046 v -0.530204 q 1.023193,-0.170532 1.023193,-0.855762 0,-0.37207 -0.458887,-0.37207 h -1.203027 v 3.007566 z"
         style="fill:#696969;fill-opacity:1"
         id="path5193"
         inkscape:connector-curvature="0" />
      <path
         d="m 53.503711,98.708672 q 1.48208,0 1.48208,1.513088 0,0.20154 -0.0279,0.40307 h -2.161108 q 0,0.68833 1.010791,0.68833 0.492993,0 0.985986,-0.093 v 0.65112 q -0.430981,0.093 -1.047998,0.093 -1.770435,0 -1.770435,-1.66502 0,-1.590598 1.528589,-1.590598 z m -0.706933,1.345658 h 1.389062 v -0.0248 q 0,-0.675927 -0.682129,-0.675927 -0.651123,0 -0.706933,0.700737 z"
         style="fill:#696969;fill-opacity:1"
         id="path5195"
         inkscape:connector-curvature="0" />
      <path
         d="m 55.602808,101.96429 v -3.255618 h 0.63562 l 0.102319,0.47749 q 0.468189,-0.47749 1.066602,-0.47749 1.156519,0 1.156519,1.203027 v 2.052591 h -0.821656 v -2.052591 q 0,-0.539502 -0.536401,-0.539502 -0.399976,0 -0.781348,0.31936 v 2.272733 z"
         style="fill:#696969;fill-opacity:1"
         id="path5197"
         inkscape:connector-curvature="0" />
      <path
         d="m 61.741968,101.87127 q -0.403076,0.093 -0.837158,0.093 -1.736328,0 -1.736328,-1.68982 0,-1.565798 1.736328,-1.565798 0.434082,0 0.837158,0.09302 v 0.651123 q -0.403076,-0.09302 -0.775146,-0.09302 -0.976685,0 -0.976685,0.914675 0,1.03869 0.976685,1.03869 0.37207,0 0.775146,-0.093 z"
         style="fill:#696969;fill-opacity:1"
         id="path5199"
         inkscape:connector-curvature="0" />
      <path
         d="m 62.284571,101.96429 v -4.433841 h 0.821655 v 1.593701 q 0.384473,-0.415478 0.982886,-0.415478 1.156518,0 1.156518,1.203027 v 2.052591 h -0.821655 v -2.052591 q 0,-0.539502 -0.536401,-0.539502 -0.399976,0 -0.781348,0.31936 v 2.272733 z"
         style="fill:#696969;fill-opacity:1"
         id="path5201"
         inkscape:connector-curvature="0" />
      <path
         d="m 66.020775,101.96429 v -3.255618 h 0.63562 l 0.09612,0.471289 q 0.437183,-0.471289 1.051099,-0.471289 0.613916,0 0.840258,0.446484 0.499195,-0.446484 1.044898,-0.446484 1.122412,0 1.122412,1.237133 v 2.018485 H 69.989525 V 99.9148 q 0,-0.542603 -0.489893,-0.542603 -0.365869,0 -0.703833,0.328662 v 2.263431 h -0.821655 v -2.040189 q 0,-0.551904 -0.452686,-0.551904 -0.359668,0 -0.679028,0.328662 v 2.263431 z"
         style="fill:#696969;fill-opacity:1"
         id="path5203"
         inkscape:connector-curvature="0" />
      <path
         d="m 71.431297,100.9504 q 0,-0.970488 1.413867,-0.970488 0.331763,0 0.663526,0.06201 v -0.244939 q 0,-0.437182 -0.629419,-0.437182 -0.533301,0 -1.184424,0.155029 v -0.651123 q 0.651123,-0.155029 1.184424,-0.155029 1.451074,0 1.451074,1.072802 v 2.182812 h -0.47749 L 73.5614,101.67283 q -0.42478,0.29146 -0.936377,0.29146 -1.193726,0 -1.193726,-1.01389 z m 2.077393,-0.35037 q -0.310059,-0.062 -0.663526,-0.062 -0.592211,0 -0.592211,0.40307 0,0.43409 0.496093,0.43409 0.409278,0 0.759644,-0.25425 z"
         style="fill:#696969;fill-opacity:1"
         id="path5205"
         inkscape:connector-curvature="0" />
      <path
         d="m 75.105492,101.96429 v -3.255618 h 0.63562 l 0.102319,0.415478 q 0.427881,-0.415478 0.905371,-0.415478 v 0.663525 q -0.458887,0 -0.821655,0.381372 v 2.210721 z"
         style="fill:#696969;fill-opacity:1"
         id="path5207"
         inkscape:connector-curvature="0" />
      <path
         d="m 77.21389,101.96429 v -4.433841 h 0.821655 v 1.432471 q 0.505396,-0.254248 1.063501,-0.254248 1.246436,0 1.246436,0.939477 0,0.682131 -0.868164,1.066601 l 1.010791,1.24954 h -1.00459 l -0.849561,-1.16272 v -0.38137 q 0.889869,-0.18914 0.889869,-0.620122 0,-0.440283 -0.589112,-0.440283 -0.412378,0 -0.89917,0.260449 v 2.344046 z"
         style="fill:#696969;fill-opacity:1"
         id="path5209"
         inkscape:connector-curvature="0" />
      <path
         d="m 81.774853,97.530449 v 0.651123 h -0.821656 v -0.651123 z m 0,1.178223 v 3.255618 h -0.821656 v -3.255618 z"
         style="fill:#696969;fill-opacity:1"
         id="path5211"
         inkscape:connector-curvature="0" />
      <path
         d="m 82.549999,101.96429 v -3.255618 h 0.63562 l 0.10232,0.47749 q 0.468188,-0.47749 1.066601,-0.47749 1.156519,0 1.156519,1.203027 v 2.052591 h -0.821656 v -2.052591 q 0,-0.539502 -0.536401,-0.539502 -0.399975,0 -0.781348,0.31936 v 2.272733 z"
         style="fill:#696969;fill-opacity:1"
         id="path5213"
         inkscape:connector-curvature="0" />
      <path
         d="m 88.369799,99.446611 q -0.201538,-0.07441 -0.573608,-0.07441 -0.852662,0 -0.852662,0.939469 0,0.90848 0.734839,0.90848 0.353467,0 0.691431,-0.16744 z m 0.821655,2.269629 q 0,1.42627 -1.714624,1.42627 -0.601513,0 -1.066601,-0.15503 v -0.65112 q 0.474389,0.15503 1.072802,0.15503 0.886768,0 0.886768,-0.74414 -0.365869,0.15503 -0.787549,0.15503 -1.451074,0 -1.451074,-1.5844 0,-1.609208 1.689819,-1.609208 0.567408,0 1.370459,0.133325 z"
         style="fill:#696969;fill-opacity:1"
         id="path5215"
         inkscape:connector-curvature="0" />
      <path
         d="m 90.710743,101.20464 v 0.75965 h -0.821655 v -0.75965 z"
         style="fill:#696969;fill-opacity:1"
         id="path5217"
         inkscape:connector-curvature="0" />
      <path
         d="m 92.075001,100.32408 q 0,1.02009 0.790649,1.02009 0.79065,0 0.79065,-1.02009 0,-0.995291 -0.79065,-0.995291 -0.790649,0 -0.790649,0.995291 z m -0.821656,0.0124 q 0,-1.63711 1.612305,-1.63711 1.612305,0 1.612305,1.63711 0,1.63401 -1.612305,1.63401 -1.606103,0 -1.612305,-1.63401 z"
         style="fill:#696969;fill-opacity:1"
         id="path5219"
         inkscape:connector-curvature="0" />
      <path
         d="m 95.098072,101.96429 v -3.255618 h 0.63562 l 0.102319,0.415478 q 0.427881,-0.415478 0.905372,-0.415478 v 0.663525 q -0.458887,0 -0.821656,0.381372 v 2.210721 z"
         style="fill:#696969;fill-opacity:1"
         id="path5221"
         inkscape:connector-curvature="0" />
      <path
         d="m 99.29006,99.446611 q -0.201538,-0.07441 -0.573608,-0.07441 -0.852661,0 -0.852661,0.939469 0,0.90848 0.734839,0.90848 0.353467,0 0.69143,-0.16744 z m 0.82166,2.269629 q 0,1.42627 -1.714628,1.42627 -0.601514,0 -1.066602,-0.15503 v -0.65112 q 0.47439,0.15503 1.072803,0.15503 0.886767,0 0.886767,-0.74414 -0.365869,0.15503 -0.787548,0.15503 -1.451075,0 -1.451075,-1.5844 0,-1.609208 1.68982,-1.609208 0.567407,0 1.370463,0.133325 z"
         style="fill:#696969;fill-opacity:1"
         id="path5223"
         inkscape:connector-curvature="0" />
    </g>
  </g>
</svg>
